# xmcd
# 
# Track frame offsets:
#     150
#     22810
#     40577
#     65555
#     87925
#     109705
#     133232
#     154072
#     178877
#     202095
#     219125
#     240592
#     260417
#     291162
# 
# Disc length: 4440
# 
# Revision: 2
# Processed by: cddbd v1.5.2PL0 Copyright (c) Steve Scherf et al.
# Submitted via: fre:ac v1.0.31
# 
DISCID=c411560e
DTITLE=みずきありさ - HISTORY～ALISA MIZUKI COMPLETE SINGLE COLLECTION～ Disc1
DYEAR=2004
DGENRE=JPop
TTITLE0=伝説の少女
TTITLE1=エデンの都市
TTITLE2=風の中で
TTITLE3=TOO SHY SHY BOY！
TTITLE4=今年いちばん風の強い午後
TTITLE5=君が好きだから
TTITLE6=happy wake up！
TTITLE7=あなたの世代へくちづけを
TTITLE8=抱きしめて！
TTITLE9=Don’t be shy
TTITLE10=風も空もきっと…
TTITLE11=PROMISE to PROMISE
TTITLE12=Forever love
TTITLE13=@
EXTD=YEAR: 2004
EXTT0=
EXTT1=
EXTT2=
EXTT3=
EXTT4=
EXTT5=
EXTT6=
EXTT7=
EXTT8=
EXTT9=
EXTT10=
EXTT11=
EXTT12=
EXTT13=
PLAYORDER=
